<?xml version="1.0" encoding="utf-8" ?>
<!-- Generator: Adobe Illustrator 24.1.2, SVG Export Plug-In . SVG Version: 6.00 Build 0)  -->
<svg
  version="1.1"
  id="Warstwa_3"
  xmlns="http://www.w3.org/2000/svg"
  xmlns:xlink="http://www.w3.org/1999/xlink"
  x="0px"
  y="0px"
  viewBox="0 0 430 430"
  style="enable-background:new 0 0 430 430;"
  xml:space="preserve"
>
<style type="text/css">
	.st0{fill:#F47827;}
	.st1{fill:#1c75bc;}
	.st2{fill:none;}
	.st3{fill:#08A88A;fill-opacity:0;}
</style>
<g>
	<path
      class="st0"
      d="M337.86,234.92c-1.61,0-3.22-0.62-4.46-1.84c-2.46-2.46-2.46-6.45,0-8.91c4.95-4.95,4.95-13.01,0-17.96
		c-2.46-2.46-2.46-6.45,0-8.91c2.46-2.46,6.45-2.46,8.91,0c9.86,9.87,9.86,25.92,0,35.78C341.08,234.31,339.47,234.92,337.86,234.92
		z"
    />
	<path
      class="st1"
      d="M80.2,193.49c-3,0-5.65-2.14-6.19-5.2l-9-50.59c-0.33-1.83,0.18-3.72,1.37-5.15s2.96-2.25,4.83-2.25h10.95
		c14,0,26.78,8.79,31.79,21.86l11.79,30.77c1.24,3.25-0.38,6.89-3.63,8.14c-3.25,1.24-6.89-0.38-8.14-3.63l-11.79-30.77
		c-3.15-8.24-11.2-13.77-20.02-13.77h-3.43l7.68,43.19c0.61,3.43-1.67,6.7-5.1,7.31C80.94,193.46,80.57,193.49,80.2,193.49z"
    />
	<path
      class="st0"
      d="M208.1,87.87h-12.65c-3.48,0-6.3-2.82-6.3-6.3s2.82-6.3,6.3-6.3h12.65c3.48,0,6.3,2.82,6.3,6.3
		S211.58,87.87,208.1,87.87z"
    />
	<path
      class="st0"
      d="M212.61,141.24h-12.65c-3.48,0-6.3-2.82-6.3-6.3s2.82-6.3,6.3-6.3h12.65c3.48,0,6.3,2.82,6.3,6.3
		S216.09,141.24,212.61,141.24z"
    />
	<path
      class="st1"
      d="M214.33,188.68c-3.48,0-6.3-2.82-6.3-6.3v-61.74L194.75,29.1c-0.26-1.81,0.27-3.64,1.47-5.03
		c1.2-1.38,2.93-2.18,4.76-2.18h18.78c17.07,0,32.24,10.85,37.75,27.01l42.83,125.49c1.12,3.29-0.63,6.87-3.93,8
		c-3.29,1.13-6.87-0.63-8-3.93L245.6,52.97c-3.77-11.05-14.15-18.48-25.83-18.48h-11.5l12.3,84.79c0.04,0.3,0.07,0.6,0.07,0.9v62.19
		C220.63,185.86,217.81,188.68,214.33,188.68z"
    />
	<path
      class="st1"
      d="M325.4,259.87c-0.58,0-1.16-0.01-1.73-0.03L80.6,250.32c-18.32-0.68-32.69-15.59-32.69-33.94
		c0-18.18,14.22-33.08,32.38-33.93l33-1.62c0,0,0,0,0,0l209.95-10.28c15.53-0.73,34.03,6.5,46.05,17.97
		c8.37,7.99,12.79,17.21,12.79,26.66c0,9.36-4.36,18.5-12.6,26.44C358.02,252.67,340.52,259.87,325.4,259.87z M113.91,193.41
		l-33.02,1.62c-11.44,0.53-20.38,9.91-20.38,21.34c0,11.54,9.04,20.92,20.57,21.35l243.08,9.52c12.06,0.46,27.14-5.59,36.59-14.7
		c3.99-3.84,8.74-9.98,8.74-17.37c0-7.49-4.84-13.68-8.89-17.55c-9.54-9.1-24.65-15.05-36.75-14.5L113.91,193.41L113.91,193.41z"
    />
	<path
      class="st1"
      d="M82.16,301.97H71.21c-1.86,0-3.63-0.83-4.83-2.25s-1.7-3.31-1.37-5.15l9-50.59c0.61-3.43,3.89-5.71,7.31-5.1
		c3.43,0.61,5.71,3.88,5.1,7.31l-7.68,43.19h3.43c8.82,0,16.87-5.53,20.02-13.77l11.78-30.77c1.24-3.25,4.89-4.87,8.14-3.63
		c3.25,1.25,4.88,4.89,3.63,8.14l-11.79,30.77C108.94,293.18,96.16,301.97,82.16,301.97z"
    />
	<path
      class="st0"
      d="M134.27,221.3C134.27,221.3,134.26,221.3,134.27,221.3l-31.1-0.04l-22.26,0.04c0,0-0.01,0-0.01,0
		c-1.9,0-3.7-0.86-4.89-2.33l-0.07-0.08c-2.19-2.7-1.78-6.67,0.92-8.86c1.45-1.18,3.27-1.61,4.98-1.33l21.33-0.04l31.11,0.04
		c3.48,0,6.3,2.83,6.29,6.31C140.56,218.49,137.74,221.3,134.27,221.3z"
    />
	<path
      class="st0"
      d="M208.1,354.73h-12.65c-3.48,0-6.3-2.82-6.3-6.3s2.82-6.3,6.3-6.3h12.65c3.48,0,6.3,2.82,6.3,6.3
		S211.58,354.73,208.1,354.73z"
    />
	<path
      class="st0"
      d="M212.61,301.36h-12.65c-3.48,0-6.3-2.82-6.3-6.3s2.82-6.3,6.3-6.3h12.65c3.48,0,6.3,2.82,6.3,6.3
		S216.09,301.36,212.61,301.36z"
    />
	<path
      class="st1"
      d="M219.77,408.11h-18.78c-1.83,0-3.57-0.79-4.76-2.18c-1.2-1.38-1.73-3.22-1.47-5.03l13.28-91.54v-59.99
		c0-3.48,2.82-6.3,6.3-6.3s6.3,2.82,6.3,6.3v60.44c0,0.3-0.02,0.6-0.07,0.9l-12.3,84.79h11.5c11.68,0,22.06-7.43,25.83-18.48
		l42.83-125.49c1.12-3.29,4.71-5.05,8-3.93c3.29,1.12,5.05,4.7,3.93,8L257.52,381.1C252.01,397.25,236.84,408.11,219.77,408.11z"
    />
</g>
</svg>
