<?xml version="1.0" encoding="utf-8" ?>
<!-- Generator: Adobe Illustrator 25.2.0, SVG Export Plug-In . SVG Version: 6.00 Build 0)  -->
<svg
  version="1.1"
  id="Warstwa_1"
  xmlns="http://www.w3.org/2000/svg"
  xmlns:xlink="http://www.w3.org/1999/xlink"
  x="0px"
  y="0px"
  viewBox="0 0 500 500"
  style="enable-background:new 0 0 500 500;"
  xml:space="preserve"
>
<style type="text/css">
	.st0{fill:#F47827;}
	.st1{fill:#1c75bc;}
	.st2{fill:#FFFFFF;}
	.st3{fill:#FFFFFF;stroke:#121331;stroke-width:14;stroke-linecap:round;stroke-linejoin:round;stroke-miterlimit:10;}
</style>
<g>
	<path
      class="st0"
      d="M402.26,175.59c-2,0-3.87-0.99-4.98-2.65l-0.41-0.6c-17.23-25.64-36.76-54.69-35.55-76.68
		c1.17-21.15,18.62-38.22,39.75-38.87c11.24-0.36,21.87,3.77,29.92,11.59c8.06,7.82,12.48,18.32,12.46,29.55
		c-0.03,21.04-18.21,48.14-35.78,74.36l-0.43,0.65C406.13,174.59,404.27,175.59,402.26,175.59
		C402.26,175.59,402.26,175.59,402.26,175.59z M402.37,68.76c-0.31,0-0.62,0-0.92,0.01c-14.95,0.46-27.3,12.55-28.13,27.54
		c-0.9,16.28,14.08,40.23,28.94,62.49c14.5-21.78,29.18-45.16,29.2-60.9l0,0c0.01-7.95-3.12-15.38-8.83-20.92
		C417.16,71.66,409.99,68.76,402.37,68.76z"
    />
	<path
      class="st0"
      d="M402.37,116.9c-11.03,0-20-8.97-20-20s8.97-20,20-20s20,8.97,20,20S413.4,116.9,402.37,116.9z M402.37,88.9
		c-4.41,0-8,3.59-8,8s3.59,8,8,8s8-3.59,8-8S406.78,88.9,402.37,88.9z"
    />
</g>
<g>
	<path
      class="st1"
      d="M98.27,443.45c-2,0-3.87-1-4.98-2.65l-0.41-0.6c-17.23-25.64-36.76-54.69-35.54-76.67
		c1.17-21.15,18.62-38.22,39.74-38.87c11.23-0.35,21.87,3.77,29.92,11.59c8.06,7.83,12.48,18.32,12.46,29.55
		c-0.03,21.04-18.21,48.14-35.78,74.36l-0.43,0.65C102.14,442.46,100.27,443.45,98.27,443.45
		C98.27,443.45,98.27,443.45,98.27,443.45z M98.37,336.63c-0.31,0-0.62,0-0.93,0.01c-14.95,0.46-27.3,12.55-28.13,27.54
		c-0.9,16.29,14.08,40.23,28.94,62.49c14.5-21.78,29.18-45.16,29.2-60.9l0,0c0.01-7.95-3.12-15.38-8.83-20.92
		C113.16,339.53,105.99,336.63,98.37,336.63z"
    />
	<path
      class="st1"
      d="M98.37,384.77c-11.03,0-20-8.97-20-20s8.97-20,20-20s20,8.97,20,20S109.4,384.77,98.37,384.77z M98.37,356.77
		c-4.41,0-8,3.59-8,8s3.59,8,8,8s8-3.59,8-8S102.78,356.77,98.37,356.77z"
    />
</g>
<g>
	<line class="st2" x1="190.19" y1="117.21" x2="190.19" y2="117.21" />
	<path
      class="st1"
      d="M190.19,124.21c-1.84,0-3.64-0.74-4.95-2.05c-0.32-0.32-0.61-0.68-0.87-1.06c-0.25-0.38-0.47-0.79-0.64-1.21
		c-0.18-0.42-0.31-0.86-0.4-1.31c-0.09-0.45-0.14-0.91-0.14-1.37c0-1.84,0.75-3.64,2.05-4.94c1.31-1.31,3.11-2.06,4.95-2.06
		c1.85,0,3.65,0.75,4.95,2.06c1.31,1.3,2.05,3.1,2.05,4.94c0,1.85-0.74,3.65-2.05,4.95C193.84,123.47,192.04,124.21,190.19,124.21z"
    />
</g>
<g>
	<line class="st2" x1="220.37" y1="117.21" x2="220.37" y2="117.21" />
	<path
      class="st1"
      d="M220.36,124.21c-1.84,0-3.64-0.74-4.95-2.05c-0.32-0.32-0.61-0.68-0.87-1.06c-0.25-0.38-0.47-0.79-0.64-1.21
		c-0.18-0.42-0.31-0.86-0.4-1.31c-0.09-0.45-0.14-0.91-0.14-1.37c0-1.84,0.75-3.64,2.05-4.94c1.31-1.31,3.11-2.06,4.95-2.06
		c1.85,0,3.65,0.75,4.95,2.06c1.31,1.3,2.05,3.1,2.05,4.94c0,1.85-0.74,3.65-2.05,4.95C224.01,123.47,222.21,124.21,220.36,124.21z"
    />
</g>
<g>
	<line class="st2" x1="250.54" y1="117.21" x2="250.54" y2="117.21" />
	<path
      class="st1"
      d="M250.54,124.21c-1.84,0-3.64-0.74-4.95-2.05c-0.32-0.32-0.61-0.68-0.87-1.06c-0.25-0.38-0.47-0.79-0.64-1.21
		c-0.18-0.42-0.31-0.86-0.4-1.31c-0.09-0.45-0.14-0.91-0.14-1.37c0-1.84,0.75-3.64,2.05-4.94c1.31-1.31,3.11-2.06,4.95-2.06
		c1.85,0,3.65,0.75,4.95,2.06c1.31,1.3,2.05,3.1,2.05,4.94c0,1.85-0.74,3.65-2.05,4.95C254.19,123.47,252.39,124.21,250.54,124.21z"
    />
</g>
<g>
	<line class="st2" x1="280.71" y1="117.21" x2="280.71" y2="117.21" />
	<path
      class="st1"
      d="M280.71,124.21c-1.84,0-3.64-0.74-4.95-2.05c-0.32-0.32-0.61-0.68-0.87-1.06c-0.25-0.38-0.47-0.79-0.64-1.21
		c-0.18-0.42-0.31-0.86-0.4-1.31c-0.09-0.45-0.14-0.91-0.14-1.37c0-1.84,0.75-3.64,2.05-4.94c1.31-1.31,3.11-2.06,4.95-2.06
		c1.85,0,3.65,0.75,4.95,2.06c1.31,1.3,2.05,3.1,2.05,4.94c0,1.85-0.74,3.65-2.05,4.95C284.36,123.47,282.56,124.21,280.71,124.21z"
    />
</g>
<g>
	<line class="st2" x1="310.89" y1="117.21" x2="310.89" y2="117.21" />
	<path
      class="st1"
      d="M310.88,124.21c-1.84,0-3.64-0.74-4.95-2.05c-0.32-0.32-0.61-0.68-0.87-1.06c-0.25-0.38-0.47-0.79-0.64-1.21
		c-0.18-0.42-0.31-0.86-0.4-1.31c-0.09-0.45-0.14-0.91-0.14-1.37c0-1.84,0.75-3.64,2.05-4.94c1.31-1.31,3.11-2.06,4.95-2.06
		c1.85,0,3.65,0.75,4.95,2.06c1.31,1.3,2.05,3.1,2.05,4.94c0,1.85-0.74,3.65-2.05,4.95C314.53,123.47,312.73,124.21,310.88,124.21z"
    />
</g>
<g>
	<line class="st2" x1="341.06" y1="117.21" x2="341.06" y2="117.21" />
	<path
      class="st1"
      d="M341.06,124.21c-1.84,0-3.64-0.74-4.95-2.05c-0.32-0.32-0.61-0.68-0.87-1.06c-0.25-0.38-0.47-0.79-0.64-1.21
		c-0.18-0.42-0.31-0.86-0.4-1.31c-0.09-0.45-0.14-0.91-0.14-1.37c0-1.84,0.75-3.64,2.05-4.94c1.31-1.31,3.11-2.06,4.95-2.06
		c1.85,0,3.65,0.75,4.95,2.06c1.31,1.3,2.05,3.1,2.05,4.94c0,1.85-0.74,3.65-2.05,4.95C344.71,123.47,342.91,124.21,341.06,124.21z"
    />
</g>
<g>
	<line class="st2" x1="341.02" y1="250.65" x2="341.02" y2="250.65" />
	<path
      class="st1"
      d="M341.02,257.65c-1.84,0-3.65-0.75-4.95-2.05c-1.3-1.31-2.05-3.11-2.05-4.95c0-1.84,0.75-3.65,2.05-4.95
		c1.62-1.63,4.04-2.37,6.32-1.92c0.44,0.09,0.88,0.23,1.31,0.4c0.42,0.18,0.82,0.39,1.2,0.65c0.39,0.25,0.75,0.54,1.07,0.87
		c1.3,1.3,2.05,3.11,2.05,4.95c0,1.84-0.75,3.64-2.05,4.95c-0.32,0.32-0.68,0.61-1.07,0.87c-0.38,0.25-0.78,0.47-1.2,0.64
		c-0.43,0.18-0.87,0.31-1.31,0.4C341.93,257.6,341.47,257.65,341.02,257.65z"
    />
</g>
<line class="st3" x1="310.85" y1="250.65" x2="310.85" y2="250.65" />
<g>
	<line class="st2" x1="280.69" y1="250.65" x2="280.69" y2="250.65" />
	<path
      class="st1"
      d="M280.69,257.65c-0.46,0-0.92-0.05-1.37-0.14c-0.45-0.09-0.89-0.22-1.31-0.4c-0.42-0.17-0.83-0.39-1.21-0.64
		c-0.38-0.26-0.74-0.55-1.06-0.87c-1.3-1.31-2.05-3.11-2.05-4.95c0-0.46,0.04-0.92,0.14-1.37c0.09-0.45,0.22-0.89,0.4-1.31
		c0.17-0.42,0.39-0.83,0.64-1.21s0.55-0.74,0.87-1.06c0.32-0.32,0.68-0.62,1.06-0.87s0.79-0.47,1.21-0.65
		c0.42-0.17,0.86-0.31,1.31-0.4c2.27-0.45,4.69,0.29,6.32,1.92c0.32,0.32,0.61,0.68,0.87,1.06c0.25,0.38,0.47,0.79,0.64,1.21
		c0.18,0.42,0.31,0.86,0.4,1.31s0.14,0.91,0.14,1.37c0,0.45-0.05,0.91-0.14,1.37c-0.09,0.44-0.22,0.88-0.4,1.3
		c-0.17,0.43-0.39,0.83-0.64,1.21c-0.26,0.39-0.55,0.74-0.87,1.07C284.33,256.9,282.53,257.65,280.69,257.65z"
    />
</g>
<g>
	<line class="st2" x1="250.52" y1="250.65" x2="250.52" y2="250.65" />
	<path
      class="st1"
      d="M250.52,257.65c-1.84,0-3.64-0.75-4.95-2.05c-0.32-0.33-0.61-0.68-0.87-1.07c-0.25-0.38-0.47-0.78-0.64-1.21
		c-0.18-0.42-0.31-0.86-0.4-1.31c-0.09-0.45-0.14-0.91-0.14-1.36c0-0.46,0.05-0.92,0.14-1.37c0.09-0.45,0.22-0.89,0.4-1.31
		c0.17-0.42,0.39-0.83,0.64-1.21c0.26-0.38,0.55-0.74,0.87-1.06c1.63-1.63,4.04-2.38,6.32-1.92c0.45,0.09,0.89,0.23,1.31,0.4
		c0.42,0.18,0.83,0.39,1.21,0.65c0.38,0.25,0.74,0.54,1.06,0.87c0.33,0.32,0.62,0.68,0.87,1.06s0.47,0.79,0.65,1.21
		c0.17,0.42,0.31,0.86,0.4,1.31s0.13,0.91,0.13,1.37c0,0.45-0.04,0.91-0.13,1.36s-0.23,0.89-0.4,1.31c-0.18,0.43-0.4,0.83-0.65,1.21
		c-0.25,0.39-0.55,0.74-0.87,1.07C254.17,256.9,252.37,257.65,250.52,257.65z"
    />
</g>
<g>
	<line class="st2" x1="220.36" y1="250.65" x2="220.36" y2="250.65" />
	<path
      class="st1"
      d="M220.36,257.65c-0.46,0-0.92-0.05-1.37-0.14c-0.45-0.09-0.89-0.22-1.31-0.4c-0.42-0.17-0.83-0.39-1.21-0.64
		c-0.38-0.26-0.74-0.55-1.06-0.87c-1.31-1.31-2.05-3.11-2.05-4.95c0-0.46,0.04-0.92,0.13-1.37s0.23-0.89,0.4-1.31
		c0.18-0.42,0.4-0.83,0.65-1.21s0.55-0.74,0.87-1.06c1.62-1.63,4.04-2.38,6.32-1.92c0.44,0.09,0.88,0.23,1.31,0.4
		c0.42,0.18,0.82,0.39,1.2,0.65c0.39,0.25,0.75,0.54,1.07,0.87c0.32,0.32,0.61,0.68,0.87,1.06c0.25,0.38,0.47,0.79,0.64,1.21
		c0.18,0.42,0.31,0.86,0.4,1.31c0.09,0.45,0.14,0.91,0.14,1.37c0,0.45-0.05,0.91-0.14,1.36c-0.09,0.45-0.22,0.89-0.4,1.31
		c-0.17,0.43-0.39,0.83-0.64,1.21c-0.26,0.39-0.55,0.74-0.87,1.07c-0.32,0.32-0.68,0.61-1.07,0.87c-0.38,0.25-0.78,0.47-1.2,0.64
		c-0.43,0.18-0.87,0.31-1.31,0.4C221.27,257.6,220.81,257.65,220.36,257.65z"
    />
</g>
<g>
	<line class="st2" x1="190.19" y1="250.65" x2="190.19" y2="250.65" />
	<path
      class="st1"
      d="M190.19,257.65c-0.45,0-0.91-0.05-1.36-0.14c-0.45-0.09-0.89-0.22-1.31-0.4c-0.43-0.17-0.83-0.39-1.21-0.64
		c-0.39-0.26-0.74-0.55-1.07-0.87c-0.32-0.33-0.61-0.68-0.87-1.07c-0.25-0.38-0.47-0.78-0.64-1.21c-0.18-0.42-0.31-0.86-0.4-1.31
		c-0.09-0.45-0.14-0.91-0.14-1.36c0-0.46,0.05-0.92,0.14-1.37c0.09-0.45,0.22-0.89,0.4-1.31c0.17-0.42,0.39-0.83,0.64-1.21
		c0.26-0.38,0.55-0.74,0.87-1.06c0.33-0.33,0.68-0.62,1.07-0.87c0.38-0.26,0.78-0.47,1.21-0.65c0.42-0.17,0.86-0.31,1.31-0.4
		c0.9-0.18,1.83-0.18,2.73,0c0.45,0.09,0.89,0.23,1.31,0.4c0.42,0.18,0.83,0.39,1.21,0.65c0.38,0.25,0.74,0.54,1.06,0.87
		c0.32,0.32,0.62,0.68,0.87,1.06c0.26,0.38,0.47,0.79,0.65,1.21c0.17,0.42,0.31,0.86,0.4,1.31c0.09,0.45,0.13,0.91,0.13,1.37
		c0,0.45-0.04,0.91-0.13,1.36c-0.09,0.45-0.23,0.89-0.4,1.31c-0.18,0.43-0.39,0.83-0.65,1.21c-0.25,0.39-0.55,0.74-0.87,1.07
		C193.84,256.9,192.04,257.65,190.19,257.65z"
    />
</g>
<g>
	<line class="st2" x1="160.03" y1="117.21" x2="160.03" y2="117.21" />
	<path
      class="st1"
      d="M160.03,124.21c-0.46,0-0.92-0.04-1.37-0.13c-0.45-0.09-0.89-0.23-1.31-0.4c-0.42-0.18-0.83-0.39-1.21-0.65
		c-0.38-0.25-0.74-0.54-1.06-0.86c-0.32-0.33-0.62-0.69-0.87-1.07c-0.25-0.38-0.47-0.79-0.65-1.21c-0.17-0.42-0.3-0.86-0.39-1.31
		c-0.1-0.45-0.14-0.91-0.14-1.37c0-0.45,0.04-0.91,0.14-1.36c0.09-0.45,0.22-0.89,0.39-1.31c0.18-0.43,0.4-0.83,0.65-1.21
		c0.25-0.39,0.55-0.74,0.87-1.07c0.32-0.32,0.68-0.61,1.06-0.87c0.38-0.25,0.79-0.46,1.21-0.64c0.42-0.17,0.86-0.31,1.31-0.4
		c0.9-0.18,1.83-0.18,2.74,0c0.44,0.09,0.88,0.23,1.31,0.4c0.42,0.18,0.82,0.39,1.2,0.64c0.39,0.26,0.75,0.55,1.07,0.87
		c0.32,0.33,0.61,0.68,0.87,1.07c0.25,0.38,0.47,0.78,0.64,1.21c0.18,0.42,0.31,0.86,0.4,1.31c0.09,0.45,0.14,0.91,0.14,1.36
		c0,0.46-0.05,0.92-0.14,1.37c-0.09,0.45-0.22,0.89-0.4,1.31c-0.17,0.42-0.39,0.83-0.64,1.21c-0.26,0.38-0.55,0.74-0.87,1.07
		c-0.32,0.32-0.68,0.61-1.07,0.86c-0.38,0.26-0.78,0.47-1.2,0.65c-0.43,0.17-0.87,0.31-1.31,0.4
		C160.94,124.17,160.48,124.21,160.03,124.21z"
    />
</g>
<g>
	<line class="st2" x1="160.03" y1="250.65" x2="160.03" y2="250.65" />
	<path
      class="st1"
      d="M160.03,257.65c-1.85,0-3.65-0.75-4.95-2.05c-0.32-0.33-0.62-0.68-0.87-1.07c-0.25-0.38-0.47-0.78-0.65-1.21
		c-0.17-0.42-0.3-0.86-0.39-1.31c-0.1-0.45-0.14-0.91-0.14-1.36c0-0.46,0.04-0.92,0.14-1.37c0.09-0.45,0.22-0.89,0.39-1.31
		c0.18-0.42,0.4-0.83,0.65-1.21s0.55-0.74,0.87-1.06c1.62-1.63,4.04-2.38,6.32-1.92c0.44,0.09,0.88,0.23,1.3,0.4
		c0.43,0.18,0.83,0.39,1.21,0.65c0.39,0.25,0.74,0.54,1.07,0.87c0.32,0.32,0.61,0.68,0.87,1.06c0.25,0.38,0.47,0.79,0.64,1.21
		c0.18,0.42,0.31,0.86,0.4,1.31c0.09,0.45,0.14,0.91,0.14,1.37c0,0.45-0.05,0.91-0.14,1.36c-0.09,0.45-0.22,0.89-0.4,1.31
		c-0.17,0.43-0.39,0.83-0.64,1.21c-0.26,0.39-0.55,0.74-0.87,1.07c-0.33,0.32-0.68,0.61-1.07,0.87c-0.38,0.25-0.78,0.47-1.21,0.64
		c-0.42,0.18-0.86,0.31-1.3,0.4C160.94,257.6,160.48,257.65,160.03,257.65z"
    />
</g>
<g>
	<line class="st2" x1="310.85" y1="384.08" x2="310.85" y2="384.08" />
	<path
      class="st1"
      d="M310.85,391.08c-0.45,0-0.91-0.05-1.37-0.14c-0.44-0.09-0.88-0.22-1.3-0.4c-0.43-0.17-0.83-0.39-1.21-0.64
		c-0.39-0.26-0.74-0.55-1.07-0.87c-0.32-0.32-0.61-0.68-0.87-1.06c-0.25-0.38-0.47-0.79-0.64-1.21c-0.18-0.43-0.31-0.87-0.4-1.31
		c-0.09-0.45-0.14-0.91-0.14-1.37s0.05-0.92,0.14-1.37c0.09-0.44,0.22-0.88,0.4-1.31c0.17-0.42,0.39-0.83,0.64-1.21
		c0.26-0.38,0.55-0.74,0.87-1.06c0.33-0.32,0.68-0.62,1.07-0.87c0.38-0.25,0.78-0.47,1.21-0.64c0.42-0.18,0.86-0.31,1.3-0.4
		c0.91-0.19,1.84-0.19,2.74,0c0.45,0.09,0.89,0.22,1.31,0.4c0.42,0.17,0.83,0.39,1.21,0.64c0.38,0.25,0.74,0.55,1.06,0.87
		c0.33,0.32,0.62,0.68,0.87,1.06c0.26,0.38,0.47,0.79,0.65,1.21c0.17,0.43,0.31,0.87,0.4,1.31c0.09,0.45,0.13,0.91,0.13,1.37
		s-0.04,0.92-0.13,1.37c-0.09,0.44-0.23,0.88-0.4,1.31c-0.18,0.42-0.39,0.83-0.65,1.21c-0.25,0.38-0.54,0.74-0.87,1.06
		c-0.32,0.32-0.68,0.61-1.06,0.87c-0.38,0.25-0.79,0.47-1.21,0.64c-0.42,0.18-0.86,0.31-1.31,0.4
		C311.77,391.03,311.31,391.08,310.85,391.08z"
    />
</g>
<g>
	<line class="st2" x1="280.69" y1="384.08" x2="280.69" y2="384.08" />
	<path
      class="st1"
      d="M280.69,391.08c-0.46,0-0.92-0.05-1.37-0.14c-0.45-0.09-0.89-0.22-1.31-0.4c-0.42-0.17-0.83-0.39-1.21-0.64
		c-0.38-0.26-0.74-0.55-1.06-0.87c-0.33-0.32-0.62-0.68-0.87-1.06s-0.47-0.79-0.65-1.21c-0.17-0.43-0.3-0.87-0.39-1.31
		c-0.1-0.45-0.14-0.91-0.14-1.37s0.04-0.92,0.14-1.37c0.09-0.44,0.22-0.88,0.39-1.31c0.18-0.42,0.4-0.83,0.65-1.21
		s0.54-0.74,0.87-1.06c0.32-0.32,0.68-0.62,1.06-0.87s0.79-0.47,1.21-0.64c0.42-0.18,0.86-0.31,1.31-0.4c0.9-0.19,1.83-0.19,2.74,0
		c0.44,0.09,0.88,0.22,1.31,0.4c0.42,0.17,0.82,0.39,1.2,0.64c0.39,0.25,0.74,0.55,1.07,0.87c0.32,0.32,0.61,0.68,0.87,1.06
		c0.25,0.38,0.47,0.79,0.64,1.21c0.18,0.43,0.31,0.87,0.4,1.31c0.09,0.45,0.14,0.91,0.14,1.37s-0.05,0.92-0.14,1.37
		c-0.09,0.44-0.22,0.88-0.4,1.31c-0.17,0.42-0.39,0.83-0.64,1.21c-0.26,0.38-0.55,0.74-0.87,1.06c-0.33,0.32-0.68,0.61-1.07,0.87
		c-0.38,0.25-0.78,0.47-1.2,0.64c-0.43,0.18-0.87,0.31-1.31,0.4C281.6,391.03,281.14,391.08,280.69,391.08z"
    />
</g>
<g>
	<line class="st2" x1="250.52" y1="384.08" x2="250.52" y2="384.08" />
	<path
      class="st1"
      d="M250.52,391.08c-0.45,0-0.91-0.05-1.36-0.14c-0.45-0.09-0.89-0.22-1.31-0.4c-0.43-0.17-0.83-0.39-1.21-0.64
		c-0.39-0.26-0.74-0.55-1.07-0.87c-0.32-0.32-0.61-0.68-0.87-1.06c-0.25-0.38-0.47-0.79-0.64-1.21c-0.18-0.43-0.31-0.87-0.4-1.31
		c-0.09-0.45-0.14-0.91-0.14-1.37s0.05-0.92,0.14-1.37c0.09-0.44,0.22-0.89,0.4-1.31c0.17-0.42,0.39-0.83,0.64-1.21
		c0.26-0.38,0.55-0.74,0.87-1.06c0.33-0.32,0.68-0.62,1.07-0.87c0.38-0.25,0.78-0.47,1.21-0.64c0.42-0.18,0.86-0.31,1.31-0.4
		c2.27-0.46,4.69,0.28,6.31,1.91c0.32,0.32,0.62,0.68,0.87,1.06c0.26,0.38,0.47,0.79,0.65,1.21c0.17,0.42,0.31,0.87,0.4,1.31
		c0.09,0.45,0.13,0.91,0.13,1.37s-0.04,0.92-0.13,1.37c-0.09,0.44-0.23,0.88-0.4,1.31c-0.18,0.42-0.39,0.83-0.65,1.21
		c-0.25,0.38-0.55,0.74-0.87,1.06C254.17,390.33,252.36,391.08,250.52,391.08z"
    />
</g>
<g>
	<line class="st2" x1="220.36" y1="384.08" x2="220.36" y2="384.08" />
	<path
      class="st1"
      d="M220.36,391.08c-0.46,0-0.92-0.05-1.37-0.14c-0.45-0.09-0.89-0.22-1.31-0.4c-0.42-0.17-0.83-0.39-1.21-0.64
		c-0.38-0.26-0.74-0.55-1.06-0.87c-0.32-0.32-0.62-0.68-0.87-1.06s-0.47-0.79-0.64-1.21c-0.18-0.43-0.31-0.87-0.4-1.31
		c-0.1-0.45-0.14-0.91-0.14-1.37s0.04-0.92,0.14-1.37c0.09-0.44,0.22-0.88,0.4-1.31c0.17-0.42,0.39-0.83,0.64-1.21
		s0.55-0.74,0.87-1.06c0.32-0.32,0.68-0.62,1.06-0.87s0.79-0.47,1.21-0.64c0.42-0.18,0.86-0.31,1.31-0.4c0.9-0.19,1.83-0.19,2.74,0
		c0.44,0.09,0.88,0.22,1.31,0.4c0.42,0.17,0.83,0.39,1.2,0.64c0.39,0.25,0.75,0.55,1.07,0.87c0.32,0.32,0.61,0.68,0.87,1.06
		c0.25,0.38,0.47,0.79,0.64,1.21c0.18,0.43,0.31,0.87,0.4,1.31c0.09,0.45,0.14,0.91,0.14,1.37s-0.05,0.92-0.14,1.37
		c-0.09,0.44-0.22,0.88-0.4,1.31c-0.17,0.42-0.39,0.83-0.64,1.21c-0.26,0.38-0.55,0.74-0.87,1.06c-0.33,0.32-0.68,0.61-1.07,0.87
		c-0.38,0.25-0.78,0.47-1.21,0.64c-0.42,0.18-0.86,0.31-1.3,0.4C221.27,391.03,220.81,391.08,220.36,391.08z"
    />
</g>
<g>
	<line class="st2" x1="190.19" y1="384.08" x2="190.19" y2="384.08" />
	<path
      class="st1"
      d="M190.19,391.08c-0.45,0-0.91-0.05-1.36-0.14c-0.45-0.09-0.89-0.22-1.31-0.4c-0.43-0.17-0.83-0.39-1.21-0.64
		c-0.39-0.26-0.74-0.55-1.07-0.87c-0.32-0.32-0.61-0.68-0.87-1.06c-0.25-0.38-0.47-0.79-0.64-1.21c-0.18-0.43-0.31-0.87-0.4-1.31
		c-0.09-0.45-0.14-0.91-0.14-1.37s0.05-0.92,0.14-1.37c0.09-0.44,0.22-0.88,0.4-1.31c0.17-0.42,0.39-0.83,0.64-1.21
		c0.26-0.38,0.55-0.74,0.87-1.06c0.33-0.32,0.68-0.62,1.07-0.87c0.38-0.25,0.78-0.47,1.21-0.64c0.42-0.18,0.86-0.31,1.31-0.4
		c0.9-0.19,1.83-0.19,2.73,0c0.45,0.09,0.89,0.22,1.31,0.4c0.42,0.17,0.83,0.39,1.21,0.64c0.38,0.25,0.74,0.55,1.06,0.87
		c0.32,0.32,0.62,0.68,0.87,1.06s0.47,0.79,0.65,1.21c0.17,0.43,0.31,0.87,0.4,1.31c0.09,0.45,0.13,0.91,0.13,1.37
		s-0.04,0.92-0.13,1.37c-0.09,0.44-0.23,0.88-0.4,1.31c-0.18,0.42-0.4,0.83-0.65,1.21s-0.55,0.74-0.87,1.06
		c-0.32,0.32-0.68,0.61-1.06,0.87c-0.38,0.25-0.79,0.47-1.21,0.64c-0.42,0.18-0.86,0.31-1.31,0.4
		C191.11,391.03,190.65,391.08,190.19,391.08z"
    />
</g>
<g>
	<line class="st2" x1="160.03" y1="384.08" x2="160.03" y2="384.08" />
	<path
      class="st1"
      d="M160.03,391.08c-0.46,0-0.92-0.05-1.37-0.14c-0.45-0.09-0.89-0.22-1.31-0.4c-0.42-0.17-0.83-0.39-1.21-0.64
		c-0.38-0.26-0.74-0.55-1.06-0.87c-0.32-0.32-0.62-0.68-0.87-1.06s-0.47-0.79-0.65-1.21c-0.17-0.43-0.31-0.87-0.4-1.31
		c-0.09-0.45-0.13-0.91-0.13-1.37s0.04-0.92,0.13-1.37c0.09-0.44,0.23-0.88,0.4-1.31c0.18-0.42,0.4-0.83,0.65-1.21
		s0.55-0.74,0.87-1.06c0.32-0.32,0.68-0.62,1.06-0.87c0.38-0.25,0.79-0.47,1.21-0.64c0.42-0.18,0.86-0.31,1.31-0.4
		c0.9-0.18,1.83-0.18,2.74,0c0.44,0.09,0.88,0.22,1.31,0.4c0.42,0.17,0.82,0.39,1.2,0.64c0.39,0.25,0.75,0.55,1.07,0.87
		c0.32,0.32,0.61,0.68,0.87,1.06c0.25,0.38,0.47,0.79,0.64,1.21c0.18,0.43,0.31,0.87,0.4,1.31c0.09,0.45,0.14,0.91,0.14,1.37
		s-0.05,0.92-0.14,1.37c-0.09,0.44-0.22,0.88-0.4,1.31c-0.17,0.42-0.39,0.83-0.64,1.21c-0.26,0.38-0.55,0.74-0.87,1.06
		c-0.32,0.32-0.68,0.61-1.07,0.87c-0.38,0.25-0.78,0.47-1.2,0.64c-0.43,0.18-0.87,0.31-1.31,0.4
		C160.94,391.03,160.48,391.08,160.03,391.08z"
    />
</g>
<line class="st3" x1="135.81" y1="131.01" x2="135.81" y2="131.01" />
<line class="st3" x1="135.81" y1="236.85" x2="135.81" y2="236.85" />
<g>
	<line class="st2" x1="122.37" y1="214.1" x2="122.37" y2="214.1" />
	<path
      class="st1"
      d="M122.37,221.1c-0.45,0-0.91-0.05-1.36-0.14c-0.45-0.09-0.89-0.23-1.31-0.4c-0.43-0.18-0.83-0.39-1.21-0.64
		c-0.39-0.26-0.74-0.55-1.07-0.88c-0.32-0.32-0.61-0.68-0.87-1.06c-0.25-0.38-0.47-0.78-0.64-1.21c-0.18-0.42-0.31-0.86-0.4-1.31
		c-0.09-0.45-0.14-0.91-0.14-1.36c0-0.46,0.05-0.92,0.14-1.37c0.09-0.45,0.22-0.89,0.4-1.31c0.17-0.42,0.39-0.83,0.64-1.21
		c0.26-0.38,0.55-0.74,0.87-1.06c0.33-0.33,0.68-0.62,1.07-0.87c0.38-0.26,0.78-0.47,1.21-0.65c0.42-0.17,0.86-0.31,1.31-0.4
		c0.9-0.18,1.83-0.18,2.73,0c0.45,0.09,0.89,0.23,1.31,0.4c0.42,0.18,0.83,0.39,1.21,0.65c0.38,0.25,0.74,0.54,1.06,0.87
		c0.33,0.32,0.62,0.68,0.87,1.06c0.26,0.38,0.47,0.79,0.65,1.21c0.17,0.42,0.31,0.86,0.4,1.31c0.09,0.45,0.13,0.91,0.13,1.37
		c0,0.45-0.04,0.91-0.13,1.36c-0.09,0.45-0.23,0.89-0.4,1.31c-0.18,0.43-0.39,0.83-0.65,1.21c-0.25,0.38-0.54,0.74-0.87,1.06
		c-0.32,0.33-0.68,0.62-1.06,0.88c-0.38,0.25-0.79,0.46-1.21,0.64c-0.42,0.17-0.86,0.31-1.31,0.4
		C123.29,221.05,122.83,221.1,122.37,221.1z"
    />
</g>
<g>
	<line class="st2" x1="119.37" y1="183.93" x2="119.37" y2="183.93" />
	<path
      class="st1"
      d="M119.37,190.93c-0.45,0-0.91-0.05-1.36-0.14c-0.45-0.09-0.89-0.22-1.31-0.4c-0.43-0.17-0.83-0.39-1.21-0.64
		c-0.39-0.25-0.74-0.55-1.07-0.87c-1.3-1.3-2.05-3.11-2.05-4.95c0-0.45,0.05-0.91,0.14-1.37c0.09-0.44,0.22-0.88,0.4-1.31
		c0.17-0.42,0.39-0.83,0.64-1.21c0.26-0.38,0.55-0.74,0.87-1.06c0.33-0.32,0.68-0.61,1.07-0.87c0.38-0.25,0.78-0.47,1.21-0.64
		c0.42-0.18,0.86-0.31,1.31-0.4c0.9-0.18,1.83-0.18,2.73,0c0.45,0.09,0.89,0.22,1.31,0.4c0.42,0.17,0.83,0.39,1.21,0.64
		c0.38,0.26,0.74,0.55,1.06,0.87c0.33,0.32,0.62,0.68,0.87,1.06c0.25,0.38,0.47,0.79,0.65,1.21c0.17,0.43,0.31,0.87,0.4,1.31
		c0.09,0.46,0.13,0.92,0.13,1.37c0,1.84-0.74,3.65-2.05,4.95c-0.32,0.32-0.68,0.62-1.06,0.87s-0.79,0.47-1.21,0.64
		c-0.42,0.18-0.86,0.31-1.31,0.4C120.29,190.88,119.83,190.93,119.37,190.93z"
    />
</g>
<g>
	<line class="st2" x1="122.37" y1="153.77" x2="122.37" y2="153.77" />
	<path
      class="st1"
      d="M122.37,160.77c-0.45,0-0.91-0.05-1.36-0.14c-0.45-0.09-0.89-0.23-1.31-0.4c-0.43-0.18-0.83-0.39-1.21-0.64
		c-0.39-0.26-0.74-0.55-1.07-0.87c-1.3-1.31-2.05-3.11-2.05-4.95c0-0.46,0.05-0.92,0.14-1.37c0.09-0.45,0.22-0.89,0.4-1.31
		c0.17-0.42,0.39-0.83,0.64-1.21c0.26-0.38,0.55-0.74,0.87-1.06c0.33-0.33,0.68-0.62,1.07-0.87c0.38-0.26,0.78-0.47,1.21-0.65
		c0.42-0.17,0.86-0.31,1.31-0.4c2.27-0.45,4.69,0.29,6.31,1.92c0.33,0.32,0.62,0.68,0.87,1.06c0.26,0.38,0.47,0.79,0.65,1.21
		c0.17,0.42,0.31,0.86,0.4,1.31c0.09,0.45,0.13,0.91,0.13,1.37c0,1.84-0.74,3.64-2.05,4.95
		C126.02,160.02,124.22,160.77,122.37,160.77z"
    />
</g>
<g>
	<line class="st2" x1="340.62" y1="384.08" x2="340.62" y2="384.08" />
	<path
      class="st1"
      d="M340.62,391.08c-0.45,0-0.91-0.05-1.37-0.14c-0.44-0.09-0.88-0.22-1.31-0.4c-0.42-0.17-0.83-0.39-1.21-0.64
		c-0.38-0.26-0.74-0.55-1.06-0.87c-0.32-0.32-0.61-0.68-0.87-1.06c-0.25-0.38-0.47-0.79-0.64-1.21c-0.18-0.43-0.31-0.87-0.4-1.31
		c-0.09-0.45-0.14-0.91-0.14-1.37s0.05-0.92,0.14-1.37c0.09-0.44,0.22-0.88,0.4-1.31c0.17-0.42,0.39-0.83,0.64-1.21
		c0.26-0.38,0.55-0.74,0.87-1.06s0.68-0.62,1.06-0.87s0.79-0.47,1.21-0.64c0.43-0.18,0.87-0.31,1.31-0.4c0.91-0.19,1.84-0.19,2.74,0
		c0.45,0.09,0.89,0.22,1.31,0.4c0.42,0.17,0.83,0.39,1.21,0.64s0.74,0.55,1.06,0.87c0.32,0.32,0.62,0.68,0.87,1.06
		s0.47,0.79,0.64,1.21c0.18,0.43,0.31,0.87,0.4,1.31c0.09,0.45,0.14,0.91,0.14,1.37s-0.05,0.92-0.14,1.37
		c-0.09,0.44-0.22,0.88-0.4,1.31c-0.17,0.42-0.39,0.83-0.64,1.21s-0.55,0.74-0.87,1.06C344.27,390.33,342.46,391.08,340.62,391.08z"
    />
</g>
<g>
	<line class="st2" x1="364.84" y1="370.28" x2="364.84" y2="370.28" />
	<path
      class="st1"
      d="M364.84,377.28c-0.45,0-0.91-0.04-1.37-0.13c-0.44-0.09-0.88-0.23-1.31-0.4c-0.42-0.18-0.82-0.4-1.2-0.65
		c-0.39-0.25-0.75-0.54-1.07-0.87c-0.32-0.32-0.61-0.68-0.87-1.06c-0.25-0.38-0.47-0.79-0.64-1.21c-0.18-0.42-0.31-0.86-0.4-1.31
		c-0.09-0.45-0.14-0.91-0.14-1.37c0-1.84,0.75-3.64,2.05-4.95c0.32-0.32,0.68-0.61,1.07-0.87c0.38-0.25,0.78-0.47,1.2-0.64
		c0.43-0.17,0.87-0.31,1.31-0.4c2.28-0.46,4.69,0.29,6.32,1.91c1.3,1.31,2.05,3.11,2.05,4.95c0,0.46-0.05,0.92-0.14,1.37
		c-0.09,0.45-0.22,0.89-0.4,1.31c-0.17,0.42-0.39,0.83-0.64,1.21s-0.55,0.74-0.87,1.06C368.49,376.54,366.69,377.28,364.84,377.28z"
    />
</g>
<g>
	<line class="st2" x1="364.84" y1="264.44" x2="364.84" y2="264.44" />
	<path
      class="st1"
      d="M364.84,271.44c-0.45,0-0.91-0.04-1.37-0.13c-0.44-0.09-0.88-0.23-1.31-0.4c-0.42-0.18-0.82-0.39-1.2-0.65
		c-0.39-0.25-0.75-0.54-1.07-0.87c-0.32-0.32-0.61-0.68-0.87-1.06c-0.25-0.38-0.47-0.79-0.64-1.21c-0.18-0.42-0.31-0.86-0.4-1.31
		s-0.14-0.91-0.14-1.37c0-0.45,0.05-0.91,0.14-1.36s0.22-0.89,0.4-1.31c0.17-0.43,0.39-0.83,0.64-1.21
		c0.26-0.39,0.55-0.75,0.87-1.07c0.32-0.32,0.68-0.61,1.07-0.87c0.38-0.25,0.78-0.47,1.2-0.64c0.43-0.18,0.87-0.31,1.31-0.4
		c0.91-0.18,1.84-0.18,2.74,0c0.45,0.09,0.89,0.22,1.31,0.4c0.42,0.17,0.83,0.39,1.21,0.64c0.38,0.26,0.74,0.55,1.06,0.87
		c0.32,0.32,0.62,0.68,0.87,1.07c0.25,0.38,0.47,0.78,0.65,1.21c0.17,0.42,0.3,0.86,0.39,1.31c0.1,0.45,0.14,0.91,0.14,1.36
		c0,1.84-0.75,3.65-2.05,4.95c-0.32,0.33-0.68,0.62-1.06,0.87c-0.38,0.26-0.79,0.47-1.21,0.65c-0.42,0.17-0.86,0.31-1.31,0.4
		S365.3,271.44,364.84,271.44z"
    />
</g>
<g>
	<path
      class="st1"
      d="M378.28,363.7c-25.96,0-47.08-21.12-47.08-47.07s21.12-47.08,47.08-47.08s47.07,21.12,47.07,47.08
		S404.23,363.7,378.28,363.7z M378.28,281.55c-19.34,0-35.08,15.73-35.08,35.08c0,19.34,15.73,35.07,35.08,35.07
		c19.34,0,35.07-15.73,35.07-35.07C413.35,297.28,397.62,281.55,378.28,281.55z"
    />
	<path
      class="st0"
      d="M378.28,339.71c-12.73,0-23.08-10.36-23.08-23.08c0-12.73,10.36-23.08,23.08-23.08
		c12.73,0,23.08,10.36,23.08,23.08C401.36,329.35,391,339.71,378.28,339.71z M378.28,305.54c-6.11,0-11.08,4.97-11.08,11.08
		c0,6.11,4.97,11.08,11.08,11.08c6.11,0,11.08-4.97,11.08-11.08C389.36,310.51,384.39,305.54,378.28,305.54z"
    />
</g>
</svg>
