<?xml version="1.0" encoding="utf-8" ?>
<!-- Generator: Adobe Illustrator 24.1.2, SVG Export Plug-In . SVG Version: 6.00 Build 0)  -->
<svg
  version="1.1"
  id="Warstwa_3"
  xmlns="http://www.w3.org/2000/svg"
  xmlns:xlink="http://www.w3.org/1999/xlink"
  x="0px"
  y="0px"
  viewBox="0 0 430 430"
  style="enable-background:new 0 0 430 430;"
  xml:space="preserve"
>
<style type="text/css">
	.st0{fill:#F47827;}
	.st1{fill:#1c75bc;}
	.st2{fill:#F47827;}
	.st3{fill:none;}
</style>
<g>
	<path
      class="st2"
      d="M380.11,391.79c0.04-0.06,0.07-0.12,0.11-0.19c0.07-0.11,0.13-0.21,0.19-0.32c0.03-0.05,0.05-0.11,0.08-0.16
		c0.06-0.12,0.12-0.25,0.18-0.38c0.01-0.04,0.03-0.07,0.04-0.11c0.06-0.15,0.11-0.29,0.16-0.44c0-0.01,0.01-0.03,0.01-0.04
		c0.13-0.45,0.21-0.93,0.23-1.42c0-0.08,0.01-0.17,0.01-0.25c0-0.01,0-0.01,0-0.02c0-0.08-0.01-0.16-0.01-0.25
		c0-0.11-0.01-0.22-0.02-0.33c-0.01-0.1-0.03-0.2-0.04-0.3c-0.01-0.09-0.02-0.19-0.04-0.28c-0.02-0.11-0.05-0.21-0.08-0.31
		c-0.02-0.09-0.04-0.17-0.07-0.26c-0.03-0.11-0.07-0.21-0.11-0.31c-0.03-0.08-0.06-0.16-0.09-0.24c-0.04-0.11-0.1-0.21-0.14-0.31
		c-0.03-0.07-0.07-0.15-0.1-0.22c-0.06-0.11-0.13-0.22-0.2-0.33c-0.04-0.06-0.07-0.12-0.11-0.17c-0.09-0.14-0.19-0.26-0.29-0.39
		c-0.02-0.03-0.04-0.06-0.06-0.08l-0.01-0.02c0,0-0.01-0.01-0.01-0.01l-28.58-35.04c-0.02-0.02-0.04-0.05-0.06-0.07l-26.93-33.02
		c-2.09-2.57-5.87-2.95-8.44-0.86c-2.57,2.09-2.95,5.87-0.86,8.44l18.99,23.28H96.13l18.99-23.28c2.09-2.57,1.71-6.35-0.86-8.44
		c-2.57-2.09-6.35-1.71-8.44,0.86l-26.93,33.02c-0.02,0.02-0.04,0.05-0.06,0.07l-28.58,35.04c0,0-0.01,0.01-0.01,0.01l-0.01,0.02
		c-0.02,0.03-0.04,0.06-0.06,0.08c-0.1,0.13-0.2,0.26-0.29,0.39c-0.04,0.06-0.07,0.12-0.11,0.17c-0.07,0.11-0.14,0.22-0.2,0.33
		c-0.04,0.07-0.07,0.15-0.1,0.22c-0.05,0.1-0.1,0.21-0.14,0.31c-0.03,0.08-0.06,0.16-0.09,0.24c-0.04,0.1-0.08,0.21-0.11,0.31
		c-0.03,0.08-0.04,0.17-0.07,0.26c-0.03,0.1-0.05,0.21-0.08,0.31c-0.02,0.09-0.03,0.19-0.04,0.28c-0.01,0.1-0.03,0.2-0.04,0.3
		c-0.01,0.11-0.01,0.22-0.02,0.33c0,0.08-0.01,0.16-0.01,0.25c0,0.01,0,0.01,0,0.02c0,0.08,0.01,0.17,0.01,0.25
		c0.02,0.49,0.1,0.97,0.23,1.42c0,0.01,0.01,0.03,0.01,0.04c0.05,0.15,0.1,0.3,0.16,0.44c0.01,0.04,0.03,0.07,0.04,0.11
		c0.05,0.13,0.11,0.25,0.18,0.38c0.03,0.05,0.05,0.11,0.08,0.16c0.06,0.11,0.12,0.21,0.19,0.32c0.04,0.06,0.07,0.12,0.11,0.19
		c0.07,0.11,0.15,0.21,0.23,0.32c0.04,0.05,0.07,0.1,0.12,0.15c0.47,0.58,1.05,1.06,1.7,1.43c0.01,0.01,0.02,0.01,0.03,0.02
		c0.27,0.15,0.56,0.28,0.86,0.39c0.04,0.01,0.08,0.03,0.12,0.04c0.28,0.1,0.57,0.17,0.87,0.22c0.05,0.01,0.09,0.01,0.14,0.02
		c0.3,0.05,0.6,0.08,0.92,0.08h320.24c0.31,0,0.62-0.03,0.92-0.08c0.05-0.01,0.09-0.01,0.14-0.02c0.3-0.05,0.59-0.13,0.87-0.22
		c0.04-0.01,0.08-0.03,0.12-0.04c0.3-0.11,0.59-0.24,0.86-0.39c0.01-0.01,0.02-0.01,0.03-0.02c0.65-0.37,1.23-0.85,1.7-1.43
		c0.04-0.05,0.08-0.1,0.12-0.15C379.96,392.01,380.04,391.9,380.11,391.79z M343.66,359.38l18.82,23.08H67.52l18.82-23.08H343.66z"
    />
	<g>
		<path
        class="st1"
        d="M319.53,326.31H110.47c-3.31,0-6-2.69-6-6V140.12c0-0.78,0.15-1.55,0.44-2.27
			c0.82-2,20.99-48.95,110.09-48.95s109.27,46.95,110.09,48.95c0.29,0.72,0.44,1.49,0.44,2.27v180.19
			C325.53,323.62,322.84,326.31,319.53,326.31z M116.47,314.31h197.06V141.49c-1.43-2.74-6.54-11.25-18.29-19.68
			c-13.28-9.53-37.99-20.89-80.24-20.89s-66.96,11.36-80.24,20.89c-11.72,8.41-16.83,16.91-18.29,19.68V314.31z"
      />
		<path
        class="st1"
        d="M291.96,152.11c-0.47-1.01-9.92-20.33-46.13-27.76c-0.16-0.04-0.31-0.07-0.47-0.1
			c-8.56-1.72-18.6-2.78-30.36-2.78c-11.8,0-21.88,1.07-30.46,2.8c-0.15,0.03-0.3,0.06-0.44,0.09
			c-36.15,7.44-45.59,26.74-46.06,27.75c-0.37,0.79-0.56,1.66-0.56,2.53v85.7c0,3.31,2.69,6,6,6h143.04c3.31,0,6-2.69,6-6v-85.7
			C292.52,153.77,292.33,152.9,291.96,152.11z M238.37,135.2v99.15h-46.83v-99.13c6.77-1.09,14.54-1.74,23.46-1.74
			C223.88,133.48,231.62,134.12,238.37,135.2z M149.48,156.27c2.06-3.07,9.92-12.73,30.06-18.44v96.51h-30.06V156.27z
			 M280.52,234.34h-30.15v-96.53c20.29,5.73,28.14,15.45,30.15,18.45V234.34z"
      />
		<g>
			<path
          class="st2"
          d="M264.9,297.34c-9.24,0-16.77-7.52-16.77-16.77s7.52-16.76,16.77-16.76c9.24,0,16.77,7.52,16.77,16.76
				S274.15,297.34,264.9,297.34z M264.9,275.81c-2.63,0-4.77,2.14-4.77,4.76c0,2.63,2.14,4.77,4.77,4.77c2.63,0,4.77-2.14,4.77-4.77
				C269.67,277.95,267.53,275.81,264.9,275.81z"
        />
			<path
          class="st2"
          d="M165.1,297.34c-9.24,0-16.77-7.52-16.77-16.77s7.52-16.76,16.77-16.76c9.24,0,16.77,7.52,16.77,16.76
				S174.34,297.34,165.1,297.34z M165.1,275.81c-2.63,0-4.77,2.14-4.77,4.76c0,2.63,2.14,4.77,4.77,4.77c2.63,0,4.77-2.14,4.77-4.77
				C169.86,277.95,167.73,275.81,165.1,275.81z"
        />
		</g>
	</g>
	<path
      class="st1"
      d="M375.12,394.46c-3.31,0-6-2.69-6-6V201.66c0-84.98-69.14-154.12-154.12-154.12S60.88,116.67,60.88,201.66
		v186.81c0,3.31-2.69,6-6,6s-6-2.69-6-6V201.66c0-91.6,74.52-166.12,166.12-166.12s166.12,74.52,166.12,166.12v186.81
		C381.12,391.78,378.43,394.46,375.12,394.46z"
    />
</g>
</svg>
