<?xml version="1.0" encoding="utf-8" ?>
<!-- Generator: Adobe Illustrator 24.1.2, SVG Export Plug-In . SVG Version: 6.00 Build 0)  -->
<svg
  version="1.1"
  id="Warstwa_1"
  xmlns="http://www.w3.org/2000/svg"
  xmlns:xlink="http://www.w3.org/1999/xlink"
  x="0px"
  y="0px"
  viewBox="0 0 430 430"
  style="enable-background:new 0 0 430 430;"
  xml:space="preserve"
>
<style type="text/css">
	.st0{fill:#1c75bc;}
	.st1{fill:  #F47827;;}
	.st2{fill:none;stroke:#121331;stroke-width:12;stroke-linecap:round;stroke-linejoin:round;stroke-miterlimit:10;}
	.st3{fill:#00A689;}
</style>
<g>
	<path
      class="st1"
      d="M237.36,305.94h-26.42V247.1c0-3.31-2.69-6-6-6h-64.85c-3.31,0-6,2.69-6,6v58.85h-26.42c-3.31,0-6,2.69-6,6
		v64.85c0,3.31,2.69,6,6,6h64.85h64.85c3.31,0,6-2.69,6-6v-64.85C243.36,308.63,240.68,305.94,237.36,305.94z M146.09,253.1h52.85
		v52.85h-26.42h-26.42V253.1z M113.67,317.94h26.42h26.42v52.85h-52.85V317.94z M231.36,370.79h-52.85v-52.85h26.42h26.42V370.79z"
    />
	<path
      class="st0"
      d="M358.05,128.06L217.38,48c-1.85-1.05-4.11-1.05-5.95,0.01l-139.5,80.06c-1.86,1.07-3.01,3.06-3.01,5.2v243.52
		c0,3.31,2.69,6,6,6h280.16c3.31,0,6-2.69,6-6V133.27C361.08,131.11,359.92,129.12,358.05,128.06z M113.67,192.15h201.49v15.47
		H113.67V192.15z M315.16,180.15H113.67v-14.65h201.49V180.15z M113.67,219.61h201.49v151.18H113.67V219.61z M349.08,370.79h-21.92
		v-211.3c0-3.31-2.69-6-6-6H107.67c-3.31,0-6,2.69-6,6v211.3H80.92V136.74l133.51-76.62l134.65,76.64V370.79z"
    />
</g>
</svg>
